<?xml version="1.0" standalone="no"?>
<!DOCTYPE svg PUBLIC "-//W3C//DTD SVG 20010904//EN"
 "http://www.w3.org/TR/2001/REC-SVG-20010904/DTD/svg10.dtd">
<svg version="1.0" xmlns="http://www.w3.org/2000/svg"
 width="512.000000pt" height="512.000000pt" viewBox="0 0 512.000000 512.000000"
 preserveAspectRatio="xMidYMid meet">

<g transform="translate(0.000000,512.000000) scale(0.100000,-0.100000)"
fill="#000000" stroke="none">
<path d="M386 5029 c-63 -15 -153 -68 -197 -116 -22 -24 -55 -74 -72 -111
l-32 -67 0 -330 0 -330 28 -82 c44 -130 124 -240 239 -326 l46 -35 -35 -48
c-19 -27 -48 -76 -64 -110 -61 -126 -59 -74 -59 -1535 0 -1392 -1 -1370 42
-1431 19 -28 19 -28 0 -55 -42 -61 -52 -132 -30 -207 17 -58 100 -138 158
-154 35 -10 540 -12 2287 -10 l2242 3 27 21 c15 11 37 33 48 48 21 27 21 38
21 566 0 528 0 539 -21 566 -11 15 -33 37 -48 48 -27 21 -36 21 -726 21 -690
0 -699 0 -726 -21 -15 -11 -37 -33 -48 -48 -20 -27 -21 -40 -24 -537 l-3 -509
-79 0 -79 0 -3 509 c-3 497 -4 510 -24 537 -11 15 -33 37 -48 48 -27 21 -36
21 -726 21 -690 0 -699 0 -726 -21 -15 -11 -37 -33 -48 -48 -20 -27 -21 -40
-24 -537 l-3 -509 -163 0 -164 0 5 62 c4 55 1 70 -25 121 l-29 57 29 56 28 57
0 463 0 464 1789 2 1790 3 27 21 c15 11 37 33 48 48 21 27 21 36 21 726 0 690
0 699 -21 726 -11 15 -33 37 -48 48 -27 21 -36 21 -726 21 -690 0 -699 0 -726
-21 -15 -11 -37 -33 -48 -48 -20 -27 -21 -40 -24 -537 l-3 -509 -79 0 -79 0
-3 509 c-3 497 -4 510 -24 537 -11 15 -33 37 -48 48 -27 21 -39 21 -617 24
l-589 2 0 80 0 80 1469 2 c1467 3 1470 3 1497 24 15 11 37 33 48 48 21 27 21
36 21 726 0 690 0 699 -21 726 -11 15 -33 37 -48 48 -27 21 -36 21 -726 21
-690 0 -699 0 -726 -21 -15 -11 -37 -33 -48 -48 -20 -27 -21 -40 -24 -537 l-3
-509 -79 0 -79 0 -3 509 c-3 497 -4 510 -24 537 -11 15 -33 37 -48 48 -27 21
-36 21 -726 21 -690 0 -699 0 -726 -21 -15 -11 -37 -33 -48 -48 -20 -27 -21
-40 -24 -537 l-3 -509 -260 0 c-245 0 -261 1 -254 18 30 70 35 115 35 283 l0
177 109 4 c118 3 141 12 185 72 19 25 21 42 21 166 0 124 -2 141 -21 166 -45
61 -66 69 -190 72 -84 3 -114 7 -114 17 0 7 -16 44 -35 82 -43 86 -103 144
-193 186 l-67 32 -235 2 c-129 1 -252 -3 -274 -8z m485 -161 c60 -17 149 -103
149 -143 0 -3 -61 -5 -135 -5 -208 0 -233 -19 -280 -211 l-27 -109 -169 0
-169 0 0 136 c0 78 5 154 12 178 15 51 99 137 148 153 48 15 421 16 471 1z
m1289 -308 l0 -160 320 0 320 0 0 160 0 160 160 0 160 0 0 -480 0 -480 -640 0
-640 0 0 480 0 480 160 0 160 0 0 -160z m480 80 l0 -80 -160 0 -160 0 0 80 0
80 160 0 160 0 0 -80z m1280 -80 l0 -160 320 0 320 0 0 160 0 160 160 0 160 0
0 -480 0 -480 -640 0 -640 0 0 480 0 480 160 0 160 0 0 -160z m480 80 l0 -80
-160 0 -160 0 0 80 0 80 160 0 160 0 0 -80z m-3040 -160 l0 -80 -309 0 -309 0
20 80 20 80 289 0 289 0 0 -80z m-960 -442 l0 -202 -31 30 c-70 66 -129 215
-129 327 l0 47 80 0 80 0 0 -202z m638 13 c-3 -173 -5 -192 -24 -217 -39 -53
-70 -68 -144 -72 l-70 -4 0 -154 c0 -85 -2 -154 -4 -154 -2 0 -11 -3 -19 -6
-11 -4 -45 33 -116 129 l-101 134 0 266 0 267 241 0 240 0 -3 -189z m3842
-531 l0 -80 -1777 0 c-1558 0 -1782 -2 -1807 -15 -15 -8 -29 -15 -31 -15 -1 0
-21 25 -44 55 -23 30 -64 73 -92 95 l-51 40 1901 0 1901 0 0 -80z m-4302 -104
c54 -72 81 -99 117 -116 111 -54 246 18 262 139 l6 41 29 -18 c45 -26 113
-103 143 -162 38 -75 65 -235 65 -383 l0 -119 -122 4 c-108 4 -129 8 -174 31
-28 14 -65 37 -81 51 -39 33 -90 129 -98 189 l-7 47 -79 0 -79 0 0 -28 c0 -43
27 -137 56 -194 36 -71 123 -159 193 -197 102 -54 149 -61 419 -61 l243 0 24
-25 c33 -32 33 -78 0 -111 l-26 -26 -277 4 c-251 4 -283 6 -342 26 -161 53
-305 176 -378 322 -58 116 -75 203 -70 360 4 106 8 135 30 188 20 49 67 132
74 132 1 0 33 -42 72 -94z m1262 -456 l0 -320 -89 0 -89 0 -12 30 c-17 42 -90
104 -138 118 -22 7 -65 12 -96 12 l-56 0 0 240 0 240 240 0 240 0 0 -320z
m320 -160 l0 -160 320 0 320 0 0 160 0 160 160 0 160 0 0 -480 0 -480 -640 0
-640 0 0 239 0 239 35 6 c43 8 94 50 111 93 10 23 14 82 14 208 l0 175 80 0
80 0 0 -160z m480 80 l0 -80 -160 0 -160 0 0 80 0 80 160 0 160 0 0 -80z
m1280 -80 l0 -160 320 0 320 0 0 160 0 160 160 0 160 0 0 -480 0 -480 -640 0
-640 0 0 480 0 480 160 0 160 0 0 -160z m480 80 l0 -80 -160 0 -160 0 0 80 0
80 160 0 160 0 0 -80z m-3796 -427 c136 -91 289 -133 482 -133 l114 0 0 -160
0 -160 -400 0 -400 0 0 319 0 319 68 -70 c37 -38 98 -90 136 -115z m1076 -213
l0 -240 -160 0 -160 0 0 160 0 160 56 0 c31 0 74 5 96 12 48 14 121 76 138
118 7 16 16 30 21 30 5 0 9 -108 9 -240z m-1140 -406 c0 -36 -98 -134 -135
-134 -3 0 -5 32 -5 70 l0 70 70 0 c39 0 70 -3 70 -6z m660 -609 l0 -616 -25
-24 c-23 -24 -29 -25 -160 -25 l-135 0 0 480 0 480 -80 0 -80 0 0 -480 0 -480
-135 0 c-131 0 -137 1 -160 25 l-25 24 0 461 c0 361 3 460 13 460 28 0 139 62
181 101 43 39 116 163 116 195 0 12 45 14 245 14 l245 0 0 -615z m3680 535 l0
-80 -1760 0 -1760 0 0 80 0 80 1760 0 1760 0 0 -80z m-2720 -720 l0 -160 320
0 320 0 0 160 0 160 160 0 160 0 0 -480 0 -480 -640 0 -640 0 0 480 0 480 160
0 160 0 0 -160z m480 80 l0 -80 -160 0 -160 0 0 80 0 80 160 0 160 0 0 -80z
m1280 -80 l0 -160 320 0 320 0 0 160 0 160 160 0 160 0 0 -480 0 -480 -640 0
-640 0 0 480 0 480 160 0 160 0 0 -160z m480 80 l0 -80 -160 0 -160 0 0 80 0
80 160 0 160 0 0 -80z m-3680 -800 l0 -80 -135 0 c-131 0 -137 1 -160 25 -16
15 -25 36 -25 55 0 19 9 40 25 55 23 24 29 25 160 25 l135 0 0 -80z m455 55
c16 -15 25 -36 25 -55 0 -19 -9 -40 -25 -55 -23 -24 -29 -25 -160 -25 l-135 0
0 80 0 80 135 0 c131 0 137 -1 160 -25z"/>
</g>
</svg>
