<?xml version="1.0" standalone="no"?>
<!DOCTYPE svg PUBLIC "-//W3C//DTD SVG 20010904//EN"
 "http://www.w3.org/TR/2001/REC-SVG-20010904/DTD/svg10.dtd">
<svg version="1.0" xmlns="http://www.w3.org/2000/svg"
 width="512.000000pt" height="512.000000pt" viewBox="0 0 512.000000 512.000000"
 preserveAspectRatio="xMidYMid meet">

<g transform="translate(0.000000,512.000000) scale(0.100000,-0.100000)"
fill="#000000" stroke="none">
<path d="M1509 5101 c-105 -34 -184 -104 -237 -211 -27 -54 -27 -58 -32 -305
l-5 -250 -250 -5 c-244 -5 -251 -6 -305 -31 -112 -53 -194 -157 -219 -277 -8
-38 -11 -576 -11 -1860 0 -1968 -3 -1869 55 -1967 36 -62 104 -123 175 -158
l65 -32 1394 -3 c1233 -2 1401 -1 1455 13 111 29 199 103 254 215 27 54 27 58
32 305 l5 250 250 5 c245 5 251 6 307 32 109 51 192 156 217 276 8 38 11 576
11 1860 0 1969 3 1869 -55 1968 -38 64 -104 124 -175 158 l-65 31 -1405 2
c-1328 2 -1408 1 -1461 -16z m876 -437 c429 -174 784 -320 790 -325 5 -5 -377
-9 -894 -9 l-902 0 3 238 3 237 28 47 c33 56 80 95 139 113 24 8 45 14 48 14
2 1 356 -141 785 -315z m2000 289 c52 -28 99 -78 122 -128 17 -38 18 -131 21
-1840 1 -1185 -1 -1818 -8 -1855 -13 -70 -52 -126 -114 -165 l-49 -30 -239 -3
-238 -3 -2 1558 -3 1558 -26 56 c-31 65 -85 128 -144 169 -22 15 -409 177
-860 360 -451 183 -827 336 -835 341 -8 5 497 8 1160 6 l1175 -2 40 -22z
m-811 -774 c53 -15 138 -100 154 -155 16 -54 18 -3649 2 -3706 -16 -56 -69
-119 -125 -147 l-49 -26 -1391 0 -1390 0 -41 22 c-52 28 -108 90 -125 139 -12
33 -14 345 -14 1869 l0 1830 24 48 c26 53 67 91 126 118 38 18 106 19 1415 19
958 0 1387 -3 1414 -11z"/>
<path d="M1175 3726 c-29 -13 -69 -44 -92 -70 -74 -85 -74 -81 -71 -622 l3
-479 29 -53 c32 -57 81 -102 143 -130 35 -16 107 -17 973 -17 896 0 937 1 984
19 66 25 128 84 157 149 l24 52 0 480 c0 467 -1 481 -21 526 -29 63 -74 110
-131 139 l-48 25 -950 2 -950 3 -50 -24z m1931 -132 c18 -9 43 -31 54 -49 19
-31 20 -49 20 -491 0 -438 -1 -460 -20 -491 -21 -35 -66 -63 -102 -63 -20 0
-47 41 -181 275 -88 151 -168 286 -180 301 -25 32 -91 64 -132 64 -45 0 -109
-34 -138 -71 -13 -19 -48 -76 -77 -127 l-53 -93 -114 198 c-63 109 -124 209
-136 222 -73 80 -222 78 -296 -3 -14 -14 -120 -192 -237 -394 -229 -398 -225
-392 -290 -357 -17 9 -41 34 -53 55 -21 37 -21 47 -21 481 0 495 -1 490 69
536 l34 23 909 0 c815 0 914 -2 944 -16z m-1168 -421 c20 -18 392 -657 392
-674 0 -5 -177 -9 -430 -9 -294 0 -430 3 -430 11 0 18 370 653 392 672 11 9
28 17 38 17 10 0 27 -8 38 -17z m789 -423 c78 -135 143 -248 143 -252 0 -5
-82 -8 -183 -8 l-183 0 -63 110 -62 110 77 132 c91 158 93 160 113 156 9 -2
80 -113 158 -248z"/>
<path d="M1030 1760 c-29 -29 -26 -74 6 -99 27 -21 29 -21 1134 -21 1062 0
1109 1 1131 18 28 23 30 73 4 102 -18 20 -28 20 -1137 20 -1105 0 -1118 0
-1138 -20z"/>
<path d="M1030 1230 c-29 -29 -26 -74 6 -99 27 -21 29 -21 1134 -21 1062 0
1109 1 1131 18 28 23 30 73 4 102 -18 20 -28 20 -1137 20 -1105 0 -1118 0
-1138 -20z"/>
<path d="M1030 700 c-29 -29 -26 -74 6 -99 27 -21 29 -21 1134 -21 1062 0
1109 1 1131 18 28 23 30 73 4 102 -18 20 -28 20 -1137 20 -1105 0 -1118 0
-1138 -20z"/>
</g>
</svg>
