<?xml version="1.0" standalone="no"?>
<!DOCTYPE svg PUBLIC "-//W3C//DTD SVG 20010904//EN"
 "http://www.w3.org/TR/2001/REC-SVG-20010904/DTD/svg10.dtd">
<svg version="1.0" xmlns="http://www.w3.org/2000/svg"
 width="512.000000pt" height="512.000000pt" viewBox="0 0 512.000000 512.000000"
 preserveAspectRatio="xMidYMid meet">

<g transform="translate(0.000000,512.000000) scale(0.100000,-0.100000)"
fill="#000000" stroke="none">
<path d="M2341 5029 c-476 -53 -905 -256 -1251 -590 l-75 -72 -178 -53 c-98
-29 -187 -60 -198 -70 -28 -25 -25 -79 6 -109 28 -29 43 -30 114 -9 29 8 56
14 61 12 5 -2 -13 -38 -41 -80 -171 -265 -289 -616 -319 -943 -16 -181 -15
-202 20 -237 26 -25 36 -29 63 -24 54 10 63 31 71 168 21 358 127 687 313 971
25 37 49 67 54 67 5 0 9 -38 9 -85 0 -78 2 -88 25 -110 32 -33 78 -33 111 0
l26 26 -7 187 -8 187 84 80 c649 612 1618 708 2377 234 97 -60 102 -64 75 -70
-15 -4 -56 -7 -91 -8 -53 -1 -67 -5 -87 -26 -46 -45 -24 -119 38 -130 18 -2
118 -1 224 3 184 7 193 8 217 31 15 14 26 35 26 50 0 43 -106 400 -125 421
-28 31 -88 27 -114 -6 -25 -32 -26 -49 -5 -121 9 -30 14 -56 12 -58 -2 -2 -34
17 -72 42 -215 142 -507 255 -791 304 -139 24 -431 33 -564 18z"/>
<path d="M2474 4221 c-184 -48 -306 -233 -273 -415 11 -62 42 -133 77 -176
l20 -25 -57 -32 c-31 -17 -78 -50 -104 -73 l-47 -42 -51 56 c-28 31 -77 72
-109 92 l-58 36 27 44 c104 164 40 379 -137 462 -80 38 -184 38 -264 0 -178
-83 -241 -298 -137 -463 l28 -45 -42 -21 c-102 -53 -219 -206 -253 -334 -22
-82 -18 -130 12 -154 26 -20 37 -21 420 -21 l394 0 0 -34 c0 -19 9 -44 19 -57
l19 -24 602 0 602 0 19 24 c10 13 19 38 19 57 l0 34 394 0 c383 0 394 1 420
21 21 16 26 29 26 62 -1 144 -111 327 -250 413 l-58 36 27 44 c81 126 62 293
-46 400 -121 121 -327 120 -450 -3 -104 -104 -122 -272 -42 -397 l27 -44 -58
-36 c-32 -20 -81 -61 -109 -92 l-51 -56 -47 42 c-26 23 -73 56 -104 73 l-57
32 20 25 c149 184 86 464 -127 564 -63 30 -180 43 -241 27z m172 -170 c86 -39
136 -140 114 -231 -40 -165 -250 -215 -357 -85 -110 133 -15 335 157 335 25 0
63 -9 86 -19z m-946 -53 c57 -30 82 -65 88 -127 4 -41 0 -58 -21 -94 -85 -144
-311 -73 -295 92 6 61 39 108 92 132 54 24 83 24 136 -3z m1860 0 c57 -30 82
-65 88 -126 8 -92 -51 -162 -143 -170 -71 -6 -118 18 -152 75 -21 36 -25 53
-21 94 3 28 14 63 25 77 23 32 97 72 133 72 14 0 46 -10 70 -22z m-1871 -468
c83 -14 165 -57 222 -117 69 -72 80 -91 67 -119 l-11 -24 -354 0 c-283 0 -353
3 -353 13 0 22 55 101 99 144 52 50 132 90 203 102 29 5 55 9 58 10 3 0 34 -4
69 -9z m1930 -17 c56 -19 108 -51 151 -95 38 -38 90 -116 90 -135 0 -10 -70
-13 -353 -13 l-354 0 -11 24 c-13 28 -2 47 67 119 105 110 263 149 410 100z
m-958 -27 c92 -20 163 -58 236 -129 58 -55 123 -158 123 -194 0 -11 -82 -13
-460 -13 -378 0 -460 2 -460 13 0 36 65 139 123 194 125 120 273 164 438 129z"/>
<path d="M4263 4008 c-38 -42 -37 -59 17 -161 134 -256 209 -529 226 -830 8
-132 17 -153 71 -163 27 -5 37 -1 64 25 l32 32 -7 117 c-17 301 -89 579 -218
840 -33 67 -72 131 -86 142 -33 26 -74 25 -99 -2z"/>
<path d="M1074 3027 c-28 -14 -60 -38 -71 -53 -11 -16 -149 -321 -307 -679
-315 -712 -312 -704 -268 -791 29 -58 46 -69 213 -144 125 -57 164 -70 205
-70 76 0 131 33 173 103 19 31 39 57 45 57 6 0 40 -15 76 -33 71 -35 70 -33
103 -177 l15 -65 -46 -90 c-39 -79 -45 -98 -45 -157 -2 -127 78 -230 204 -265
57 -16 59 -18 59 -49 0 -52 37 -138 77 -179 72 -74 177 -102 277 -74 39 11 40
10 74 -30 19 -23 55 -54 80 -69 42 -24 57 -27 139 -27 l91 -1 34 -43 c18 -24
58 -58 88 -75 48 -27 64 -31 130 -31 81 0 126 17 189 71 l32 27 56 -28 c164
-84 351 0 393 175 l12 50 42 0 c110 0 220 79 250 181 9 29 16 60 16 69 0 13
12 19 49 23 146 17 247 136 240 283 l-3 57 46 23 c82 42 137 130 138 220 l0
51 92 38 c61 26 93 34 96 27 29 -87 98 -149 177 -158 44 -6 68 0 190 46 179
67 218 89 250 145 52 87 55 76 -234 820 -250 646 -261 671 -301 707 -76 68
-145 65 -345 -15 -155 -62 -204 -100 -224 -173 -15 -54 -14 -70 13 -146 28
-78 31 -72 -74 -123 -89 -43 -127 -42 -248 7 -190 76 -243 90 -356 95 -130 7
-190 -5 -304 -58 l-84 -38 -49 24 c-123 63 -296 70 -499 21 -157 -38 -202 -35
-324 20 -55 25 -102 47 -104 49 -2 1 8 30 22 64 41 96 30 179 -31 243 -34 36
-315 160 -373 165 -33 3 -59 -3 -96 -20z m215 -192 c132 -58 151 -70 151 -91
0 -15 -547 -1261 -563 -1281 -16 -21 -42 -15 -164 39 -137 60 -143 64 -143 91
0 21 543 1260 562 1285 16 19 25 16 157 -43z m2759 -48 c22 -26 503 -1283 500
-1307 -3 -21 -16 -30 -93 -61 -179 -70 -194 -75 -210 -59 -8 8 -127 306 -265
663 -181 467 -248 652 -242 663 10 18 244 113 278 114 12 0 26 -6 32 -13z
m-2400 -434 c90 -41 191 -42 370 -4 78 17 172 31 208 31 60 0 154 -16 154 -27
0 -8 -178 -174 -242 -225 -35 -28 -120 -88 -190 -134 -70 -46 -134 -94 -142
-106 -34 -48 -15 -98 70 -182 110 -110 219 -152 373 -143 111 7 151 17 361 99
187 73 287 96 346 80 31 -9 612 -333 721 -402 51 -33 58 -113 14 -162 -25 -28
-36 -33 -73 -32 -36 1 -81 22 -283 137 -132 75 -250 137 -262 137 -12 0 -34
-11 -49 -23 -33 -28 -37 -76 -9 -107 10 -11 123 -79 252 -151 128 -72 242
-143 253 -157 48 -60 6 -156 -72 -169 -35 -5 -62 8 -340 164 -167 94 -314 176
-326 182 -68 36 -142 -52 -98 -115 8 -11 130 -85 271 -165 273 -153 295 -170
295 -237 0 -26 -9 -43 -35 -69 -32 -32 -40 -35 -78 -30 -47 5 -353 174 -415
228 -56 50 -113 70 -191 70 -62 0 -69 2 -79 24 -20 44 -87 108 -137 131 -38
18 -68 24 -121 24 -69 0 -72 1 -78 26 -4 14 -28 47 -54 73 -52 52 -119 81
-187 81 -41 0 -42 1 -64 54 -24 60 -88 126 -143 149 -84 35 -184 28 -252 -18
l-35 -23 -15 45 c-27 78 -60 111 -155 155 -47 21 -87 41 -89 42 -1 2 77 183
174 402 97 220 178 404 181 411 5 12 16 8 171 -64z m1452 3 c191 -75 241 -89
322 -90 72 -1 82 2 167 45 l91 46 19 -51 c10 -28 83 -215 160 -415 78 -200
140 -368 138 -374 -1 -5 -44 -26 -94 -47 l-90 -38 -24 23 c-26 24 -666 391
-745 427 -39 18 -67 22 -139 21 -102 -1 -151 -14 -355 -93 -285 -112 -388
-118 -515 -30 -25 17 -45 35 -45 39 0 5 26 25 58 46 116 77 244 179 358 287
133 125 226 190 323 225 58 21 79 23 171 20 92 -3 116 -8 200 -41z m-1474
-1112 c11 -8 26 -26 32 -40 24 -51 14 -83 -70 -231 -77 -133 -86 -144 -121
-155 -70 -21 -143 36 -140 111 0 24 23 78 68 161 37 69 72 131 79 139 31 39
104 46 152 15z m320 -238 c51 -51 47 -72 -58 -278 -96 -190 -119 -218 -181
-218 -67 0 -124 62 -114 125 6 39 189 363 218 388 12 10 38 17 61 17 32 0 47
-7 74 -34z m312 -160 c27 -14 45 -40 57 -84 8 -28 -132 -304 -176 -344 -44
-42 -100 -39 -145 6 -24 24 -34 43 -34 64 0 38 153 336 183 357 27 19 80 19
115 1z m354 -195 c29 -26 33 -35 32 -78 0 -39 -11 -68 -63 -163 -81 -149 -97
-165 -162 -165 -45 0 -54 4 -80 33 -19 21 -29 43 -29 64 0 36 130 293 162 321
34 28 101 23 140 -12z m260 -161 c32 -20 49 -39 58 -64 31 -96 -69 -180 -158
-131 -57 31 -57 26 -13 113 23 45 41 88 41 97 0 22 19 18 72 -15z"/>
<path d="M1175 2735 c-53 -52 -18 -135 57 -135 60 0 100 75 65 121 -33 43 -87
50 -122 14z"/>
<path d="M3889 2651 c-34 -35 -37 -68 -8 -105 26 -33 88 -37 119 -6 29 29 27
84 -5 115 -33 33 -70 32 -106 -4z"/>
</g>
</svg>
