<?xml version="1.0" standalone="no"?>
<!DOCTYPE svg PUBLIC "-//W3C//DTD SVG 20010904//EN"
 "http://www.w3.org/TR/2001/REC-SVG-20010904/DTD/svg10.dtd">
<svg version="1.0" xmlns="http://www.w3.org/2000/svg"
 width="512.000000pt" height="512.000000pt" viewBox="0 0 512.000000 512.000000"
 preserveAspectRatio="xMidYMid meet">

<g transform="translate(0.000000,512.000000) scale(0.100000,-0.100000)"
fill="#000000" stroke="none">
<path d="M2958 4973 l-3 -146 -74 -30 -73 -29 -102 101 -101 101 -225 -225
-225 -225 102 -102 102 -103 -29 -65 c-16 -36 -30 -71 -30 -77 0 -10 -117 -13
-550 -13 l-550 0 0 -75 0 -75 200 0 200 0 0 -565 0 -565 -280 0 -280 0 0 -80
0 -80 355 0 355 0 2 643 3 642 123 3 122 3 0 -241 0 -240 145 0 145 0 12 -27
c6 -16 22 -53 35 -82 l24 -55 -103 -103 -103 -103 223 -222 222 -223 104 104
103 103 39 -20 c21 -10 56 -25 76 -31 l37 -12 3 -147 3 -147 315 0 315 0 3
147 3 147 37 12 c20 6 55 21 76 31 l39 20 103 -103 104 -104 220 220 c121 121
220 224 220 230 0 5 -44 53 -97 107 l-96 97 31 78 30 78 146 3 146 3 0 239 0
240 205 0 205 0 0 -365 0 -365 -162 -2 -163 -3 -3 -72 -3 -73 163 -2 163 -3 3
-202 2 -203 75 0 75 0 0 720 0 720 -425 0 -425 0 -12 28 c-6 15 -21 50 -33 78
l-23 52 104 103 104 104 -222 222 -223 223 -100 -100 c-55 -55 -105 -100 -110
-100 -6 0 -42 13 -80 29 l-70 30 -3 145 -3 146 -319 0 -319 0 -3 -147z m492
-131 l0 -127 78 -24 c42 -14 117 -44 166 -69 l88 -44 89 88 89 89 117 -118
118 -117 -89 -89 -89 -89 40 -79 c23 -43 53 -117 69 -165 l28 -88 128 0 128 0
0 -165 0 -165 -128 0 -128 0 -22 -75 c-12 -42 -43 -118 -69 -171 l-46 -95 89
-90 89 -89 -115 -115 -115 -115 -90 90 -90 90 -80 -42 c-44 -23 -118 -54 -165
-69 l-85 -27 -3 -126 -3 -126 -164 0 -165 0 0 124 0 123 -97 32 c-54 17 -129
48 -168 70 l-70 39 -90 -89 -90 -89 -118 118 -117 117 88 88 89 88 -43 82
c-23 45 -54 121 -69 170 l-27 87 -129 0 -129 0 2 163 3 162 127 3 126 3 22 71
c12 40 44 115 70 167 l48 96 -89 90 -89 90 115 115 115 115 89 -89 90 -89 71
37 c40 21 115 53 168 70 l97 33 3 126 3 127 164 0 165 0 0 -128z"/>
<path d="M3163 4385 c-193 -43 -354 -194 -414 -385 -23 -75 -27 -208 -8 -286
46 -193 206 -358 399 -409 72 -19 207 -19 284 1 177 46 314 175 384 362 34 93
37 236 5 337 -53 169 -197 315 -362 366 -86 26 -208 33 -288 14z m252 -162
c225 -79 330 -336 227 -556 -137 -294 -555 -304 -714 -17 -37 67 -51 129 -46
217 12 262 283 444 533 356z"/>
<path d="M400 4805 l0 -75 800 0 800 0 0 75 0 75 -800 0 -800 0 0 -75z"/>
<path d="M4560 4805 l0 -75 240 0 240 0 0 75 0 75 -240 0 -240 0 0 -75z"/>
<path d="M560 4485 l0 -75 80 0 80 0 0 75 0 75 -80 0 -80 0 0 -75z"/>
<path d="M880 4485 l0 -75 80 0 80 0 0 75 0 75 -80 0 -80 0 0 -75z"/>
<path d="M1200 4485 l0 -75 320 0 320 0 0 75 0 75 -320 0 -320 0 0 -75z"/>
<path d="M4560 4485 l0 -75 80 0 80 0 0 75 0 75 -80 0 -80 0 0 -75z"/>
<path d="M0 2080 l0 -2080 1320 0 1320 0 0 75 0 75 -845 0 -845 0 0 445 0 445
285 0 285 0 0 75 0 75 -360 0 -360 0 0 -520 0 -520 -325 0 -325 0 0 925 0 925
1045 0 1045 0 0 -480 0 -480 80 0 80 0 -2 558 -3 557 -1122 3 -1123 2 0 925 0
925 405 0 405 0 0 75 0 75 -480 0 -480 0 0 -2080z"/>
<path d="M322 3283 l3 -558 232 -3 233 -2 2 242 3 243 118 3 117 3 0 314 0
315 -355 0 -355 0 2 -557z m558 242 l0 -165 -205 0 -205 0 0 165 0 165 205 0
205 0 0 -165z m-240 -480 l0 -165 -85 0 -85 0 0 158 c0 87 3 162 7 165 3 4 42
7 85 7 l78 0 0 -165z"/>
<path d="M4644 2946 c-3 -7 -4 -42 -2 -77 l3 -64 78 -3 77 -3 0 81 0 80 -75 0
c-54 0 -77 -4 -81 -14z"/>
<path d="M4644 2626 c-3 -7 -4 -42 -2 -77 l3 -64 78 -3 77 -3 0 81 0 80 -75 0
c-54 0 -77 -4 -81 -14z"/>
<path d="M4970 1315 l0 -1165 -685 0 -685 0 0 605 0 605 520 0 520 0 0 75 0
75 -280 0 -280 0 -2 363 -3 362 -395 0 -395 0 -3 -77 -3 -78 326 0 325 0 -2
-282 -3 -283 -237 -3 -238 -2 0 -680 0 -680 -285 0 -285 0 0 -75 0 -75 1120 0
1120 0 0 1240 0 1240 -75 0 -75 0 0 -1165z"/>
<path d="M320 1595 l0 -235 795 0 795 0 0 235 0 235 -795 0 -795 0 0 -235z
m1440 0 l0 -85 -645 0 -645 0 0 85 0 85 645 0 645 0 0 -85z"/>
<path d="M3770 755 l0 -435 435 0 435 0 0 435 0 435 -435 0 -435 0 0 -435z
m320 0 l0 -285 -85 0 -85 0 0 285 0 285 85 0 85 0 0 -285z m400 0 l0 -285
-125 0 -125 0 0 285 0 285 125 0 125 0 0 -285z"/>
<path d="M320 715 l0 -75 80 0 80 0 0 75 0 75 -80 0 -80 0 0 -75z"/>
<path d="M1265 771 c-156 -71 -189 -277 -62 -388 80 -71 187 -80 276 -25 67
41 102 99 109 178 6 85 -15 141 -75 194 -70 62 -168 78 -248 41z m149 -156
c68 -63 -10 -173 -93 -130 -51 26 -58 93 -15 133 33 29 74 28 108 -3z"/>
<path d="M1905 771 c-193 -88 -181 -360 19 -436 110 -42 245 19 293 132 19 46
16 140 -6 188 -23 49 -74 99 -123 119 -50 21 -134 20 -183 -3z m150 -156 c17
-16 25 -35 25 -57 -1 -40 -17 -64 -55 -78 -84 -32 -148 85 -77 140 34 27 77
25 107 -5z"/>
<path d="M320 395 l0 -75 80 0 80 0 0 75 0 75 -80 0 -80 0 0 -75z"/>
<path d="M2480 395 l0 -75 80 0 80 0 0 75 0 75 -80 0 -80 0 0 -75z"/>
<path d="M2800 395 l0 -75 80 0 80 0 0 75 0 75 -80 0 -80 0 0 -75z"/>
<path d="M3120 395 l0 -75 80 0 80 0 0 75 0 75 -80 0 -80 0 0 -75z"/>
</g>
</svg>
