<?xml version="1.0" standalone="no"?>
<!DOCTYPE svg PUBLIC "-//W3C//DTD SVG 20010904//EN"
 "http://www.w3.org/TR/2001/REC-SVG-20010904/DTD/svg10.dtd">
<svg version="1.0" xmlns="http://www.w3.org/2000/svg"
 width="512.000000pt" height="512.000000pt" viewBox="0 0 512.000000 512.000000"
 preserveAspectRatio="xMidYMid meet">

<g transform="translate(0.000000,512.000000) scale(0.100000,-0.100000)"
fill="#000000" stroke="none">
<path d="M320 4947 c-49 -16 -133 -102 -148 -153 -28 -94 -8 -169 63 -239 70
-70 92 -75 348 -75 197 0 216 -2 221 -17 39 -135 556 -2046 556 -2057 0 -10
-9 -16 -23 -16 -13 0 -53 -9 -88 -21 -166 -54 -303 -170 -377 -320 -95 -191
-95 -386 -2 -573 51 -102 120 -181 215 -245 91 -61 165 -89 273 -105 l84 -12
-37 -44 c-68 -81 -112 -193 -122 -306 -27 -320 234 -604 557 -604 323 0 584
284 557 604 -10 114 -54 225 -123 307 l-37 44 262 3 c143 1 379 1 522 0 l262
-3 -37 -44 c-69 -82 -113 -193 -123 -307 -27 -320 234 -604 557 -604 323 0
584 284 557 604 -10 114 -54 225 -123 307 l-37 44 114 5 c135 7 169 20 225 83
85 97 85 217 0 314 -75 85 69 77 -1573 83 -1457 5 -1462 5 -1489 26 -53 39
-69 71 -69 134 0 63 16 95 69 134 27 21 33 21 1459 26 1598 6 1462 -1 1572 75
59 41 95 84 130 156 14 30 120 403 236 829 179 658 210 782 206 822 -7 56 -25
93 -63 132 -59 58 -71 61 -306 64 l-218 3 -25 -25 c-33 -33 -33 -79 0 -111 24
-25 25 -25 220 -25 182 0 196 -1 215 -20 11 -11 20 -26 20 -34 0 -8 -95 -363
-210 -788 -230 -844 -224 -827 -315 -883 l-48 -30 -1138 -3 -1137 -2 -16 52
c-8 29 -115 420 -237 868 -122 448 -224 821 -226 828 -4 9 39 12 196 12 201 0
202 0 226 25 30 29 32 74 6 106 -19 24 -22 24 -247 29 l-229 5 -95 350 c-61
224 -106 369 -125 403 -38 69 -101 126 -183 165 l-67 32 -300 2 c-202 1 -311
-2 -335 -10z m611 -158 c44 -15 92 -51 124 -93 20 -27 96 -293 375 -1315 193
-705 350 -1286 350 -1291 0 -4 -96 -10 -212 -12 -202 -3 -216 -5 -263 -28 -64
-31 -124 -91 -155 -155 -34 -69 -35 -198 -2 -265 34 -71 75 -113 144 -151 l63
-34 1463 -5 1464 -5 19 -24 c26 -32 24 -77 -6 -106 l-24 -25 -1443 0 c-1248 0
-1452 2 -1501 15 -258 67 -417 329 -352 580 56 213 251 365 468 365 48 0 62 4
82 25 14 13 25 34 25 45 0 12 -139 533 -310 1158 -249 915 -314 1140 -331
1155 -19 15 -48 17 -281 17 l-259 0 -24 25 c-16 15 -25 36 -25 55 0 19 9 40
25 55 l24 25 264 0 c171 0 276 -4 298 -11z m1073 -3707 c91 -42 149 -100 194
-190 35 -72 37 -81 37 -172 0 -91 -2 -100 -37 -172 -45 -91 -103 -147 -196
-191 -61 -29 -76 -32 -162 -32 -86 0 -101 3 -162 32 -93 44 -151 100 -196 191
-35 72 -37 81 -37 171 0 87 3 102 32 163 40 85 97 147 172 186 78 42 122 52
213 48 61 -3 92 -11 142 -34z m1840 0 c91 -42 149 -100 194 -190 35 -72 37
-81 37 -172 0 -91 -2 -100 -37 -172 -45 -91 -103 -147 -196 -191 -61 -29 -76
-32 -162 -32 -86 0 -101 3 -162 32 -93 44 -151 100 -196 191 -35 72 -37 81
-37 171 0 87 3 102 32 163 40 85 97 147 172 186 78 42 122 52 213 48 61 -3 92
-11 142 -34z"/>
<path d="M1760 947 c-49 -16 -133 -102 -148 -153 -28 -94 -8 -169 63 -239 101
-102 229 -102 330 0 102 101 102 229 0 330 -70 71 -152 91 -245 62z m135 -172
c50 -49 15 -135 -55 -135 -19 0 -40 9 -55 25 -16 15 -25 36 -25 55 0 19 9 40
25 55 15 16 36 25 55 25 19 0 40 -9 55 -25z"/>
<path d="M3600 947 c-49 -16 -133 -102 -148 -153 -28 -94 -8 -169 63 -239 101
-102 229 -102 330 0 52 51 75 102 75 165 0 63 -23 114 -75 165 -70 71 -152 91
-245 62z m135 -172 c50 -49 15 -135 -55 -135 -41 0 -80 39 -80 80 0 41 39 80
80 80 19 0 40 -9 55 -25z"/>
<path d="M3000 4954 c-359 -53 -649 -255 -803 -559 -155 -308 -155 -640 -2
-945 51 -103 86 -151 174 -243 93 -97 172 -157 276 -210 308 -155 646 -155
946 -1 113 58 167 98 257 186 149 147 239 312 294 538 17 71 17 316 0 395 -81
376 -349 679 -702 793 -129 42 -326 62 -440 46z m340 -183 c569 -152 834 -799
534 -1303 -100 -168 -284 -317 -467 -378 -634 -214 -1267 324 -1153 979 63
358 347 648 702 716 105 19 283 13 384 -14z"/>
<path d="M3303 3978 l-343 -342 -183 182 c-162 161 -187 182 -216 182 -43 0
-81 -38 -81 -82 0 -29 23 -56 223 -255 204 -205 225 -223 257 -223 32 0 61 27
417 383 348 348 383 385 383 415 0 44 -38 82 -82 82 -29 0 -65 -33 -375 -342z"/>
</g>
</svg>
