<?xml version="1.0" standalone="no"?>
<!DOCTYPE svg PUBLIC "-//W3C//DTD SVG 20010904//EN"
 "http://www.w3.org/TR/2001/REC-SVG-20010904/DTD/svg10.dtd">
<svg version="1.0" xmlns="http://www.w3.org/2000/svg"
 width="512.000000pt" height="512.000000pt" viewBox="0 0 512.000000 512.000000"
 preserveAspectRatio="xMidYMid meet">

<g transform="translate(0.000000,512.000000) scale(0.100000,-0.100000)"
fill="#000000" stroke="none">
<path d="M2505 5095 l-25 -24 0 -1176 0 -1175 -80 0 -80 0 0 855 0 856 -25 24
c-13 14 -31 25 -40 25 -13 0 -15 24 -15 175 0 239 15 225 -240 225 -255 0
-240 14 -240 -225 0 -143 -3 -175 -14 -175 -8 0 -24 -9 -37 -19 l-24 -19 -5
-443 -5 -442 -94 279 c-118 351 -135 387 -211 457 -223 207 -568 92 -640 -212
-25 -106 -15 -145 199 -771 l199 -585 -105 -5 c-152 -7 -143 13 -143 -322 l0
-269 25 -24 c20 -21 34 -25 79 -25 l55 0 3 -888 3 -888 37 -76 c45 -91 103
-147 196 -191 l67 -32 1215 0 1215 0 67 32 c93 44 151 100 196 191 l37 76 3
888 3 888 55 0 c45 0 59 4 79 25 l25 24 0 271 0 271 -25 24 -24 25 -272 0
c-217 0 -270 3 -266 13 7 18 417 751 425 759 4 4 35 -11 70 -33 58 -37 61 -41
51 -62 -21 -39 -230 -411 -250 -444 l-20 -32 68 -40 c37 -22 71 -36 75 -33 18
19 328 580 328 595 0 36 -24 64 -93 106 -40 25 -89 55 -110 68 l-38 24 25 44
c31 52 33 84 7 116 l-18 24 70 128 c56 102 71 140 75 182 14 169 -136 299
-296 255 -67 -17 -120 -74 -191 -203 l-64 -115 -33 5 c-47 8 -62 -12 -184
-231 l-105 -189 -5 713 -5 712 -24 19 c-22 18 -45 19 -453 19 l-429 0 -24 -25z
m775 -934 l0 -798 -178 -319 -179 -319 -141 -3 -142 -3 0 121 0 120 80 0 80 0
0 80 0 80 -80 0 -80 0 0 80 0 80 160 0 160 0 0 80 0 80 -160 0 -160 0 0 80 0
80 80 0 80 0 0 80 0 80 -80 0 -80 0 0 80 0 80 160 0 160 0 0 80 0 80 -160 0
-160 0 0 80 0 80 80 0 80 0 0 80 0 80 -80 0 -80 0 0 80 0 80 160 0 160 0 0 80
0 80 -160 0 -160 0 0 120 0 120 320 0 320 0 0 -799z m-1200 439 l0 -120 -80 0
-80 0 0 120 0 120 80 0 80 0 0 -120z m80 -560 l0 -280 -160 0 -160 0 0 280 0
280 160 0 160 0 0 -280z m-934 165 c24 -14 55 -43 69 -63 24 -37 142 -368 134
-376 -2 -2 -100 -40 -217 -84 -140 -53 -215 -76 -218 -69 -51 138 -114 351
-114 387 0 90 82 204 165 230 49 15 131 4 181 -25z m2909 10 c39 -38 32 -73
-36 -193 -33 -58 -62 -108 -64 -110 -6 -7 -125 69 -125 79 0 17 120 223 137
237 26 19 62 14 88 -13z m-248 -407 c65 -39 122 -75 126 -79 8 -6 -430 -807
-457 -836 -8 -9 -40 6 -130 62 -65 41 -123 78 -129 84 -10 10 449 841 464 841
5 0 62 -32 126 -72z m-2374 -273 c14 -41 22 -77 18 -79 -13 -8 -411 -156 -420
-156 -7 0 -64 149 -58 150 1 1 94 36 207 79 113 44 210 79 217 80 6 1 23 -33
36 -74z m647 -375 l0 -440 -99 0 c-85 0 -100 2 -106 18 -4 9 -31 89 -61 176
l-54 159 0 263 0 264 160 0 160 0 0 -440z m-471 -138 c52 -152 96 -283 99
-290 3 -10 -14 -12 -78 -10 l-82 3 -89 260 c-49 143 -85 263 -81 267 10 9 104
46 122 47 11 1 41 -75 109 -277z m-313 -52 c39 -118 75 -223 79 -233 7 -16 1
-18 -75 -15 l-82 3 -69 200 c-38 110 -69 205 -69 210 0 11 107 55 129 52 9 -1
40 -80 87 -217z m1963 -148 c67 -42 124 -81 125 -87 0 -6 -65 -11 -176 -13
-98 -1 -178 0 -178 4 0 10 94 174 99 173 3 0 62 -35 130 -77z m741 -422 l0
-160 -1520 0 -1520 0 0 160 0 160 1520 0 1520 0 0 -160z m-160 -1176 c0 -643
-3 -867 -12 -898 -16 -55 -99 -138 -154 -154 -60 -17 -2328 -17 -2388 0 -55
16 -138 99 -154 154 -9 31 -12 255 -12 898 l0 856 1360 0 1360 0 0 -856z"/>
<path d="M1360 1840 l0 -80 80 0 80 0 0 80 0 80 -80 0 -80 0 0 -80z"/>
<path d="M1360 1080 l0 -520 80 0 80 0 0 520 0 520 -80 0 -80 0 0 -520z"/>
</g>
</svg>
