<?xml version="1.0" standalone="no"?>
<!DOCTYPE svg PUBLIC "-//W3C//DTD SVG 20010904//EN"
 "http://www.w3.org/TR/2001/REC-SVG-20010904/DTD/svg10.dtd">
<svg version="1.0" xmlns="http://www.w3.org/2000/svg"
 width="512.000000pt" height="512.000000pt" viewBox="0 0 512.000000 512.000000"
 preserveAspectRatio="xMidYMid meet">

<g transform="translate(0.000000,512.000000) scale(0.100000,-0.100000)"
fill="#000000" stroke="none">
<path d="M347 4772 c-24 -26 -21 -75 4 -98 15 -14 40 -20 95 -22 l74 -4 0
-1399 0 -1399 -78 0 c-64 0 -82 -4 -95 -18 -24 -26 -21 -75 4 -98 20 -18 53
-19 873 -24 l853 -5 -409 -635 c-224 -349 -411 -646 -415 -659 -10 -40 16 -75
59 -79 22 -2 41 3 51 13 9 8 111 164 228 345 l211 330 344 0 344 0 0 -265 c0
-252 1 -266 20 -285 26 -26 74 -26 100 0 19 19 20 33 20 285 l0 265 344 0 344
0 211 -330 c117 -181 219 -337 228 -345 10 -10 29 -15 51 -13 43 4 69 39 59
79 -4 13 -191 310 -415 659 l-409 635 853 5 c820 5 853 6 873 24 26 24 28 77
3 99 -14 13 -38 17 -95 17 l-77 0 0 1399 0 1399 74 4 c55 2 80 8 95 22 26 24
28 77 3 99 -17 16 -185 17 -2214 17 -2114 0 -2196 -1 -2211 -18z m4113 -1522
l0 -1400 -1900 0 -1900 0 0 1400 0 1400 1900 0 1900 0 0 -1400z m-1970 -1815
l0 -275 -295 0 c-162 0 -295 3 -295 6 0 4 78 127 173 275 l172 269 123 0 122
0 0 -275z m558 6 c94 -148 172 -271 172 -275 0 -3 -133 -6 -295 -6 l-295 0 0
275 0 275 123 0 122 0 173 -269z"/>
<path d="M1022 4347 c-29 -30 -28 -62 3 -92 l24 -25 236 0 c222 0 236 1 255
20 28 28 27 84 -2 104 -19 13 -61 16 -258 16 -234 0 -237 0 -258 -23z"/>
<path d="M3564 4140 c-11 -4 -165 -155 -342 -335 l-321 -328 -30 26 c-17 14
-161 144 -322 288 -160 145 -300 267 -310 271 -11 4 -30 3 -43 -2 -14 -5 -163
-190 -372 -462 -261 -339 -349 -461 -352 -486 -6 -43 20 -72 64 -72 39 0 22
-20 409 485 147 193 271 354 276 359 4 5 153 -122 330 -283 264 -237 329 -291
352 -291 24 0 75 47 330 308 419 425 417 423 417 459 0 45 -45 78 -86 63z"/>
<path d="M1043 4070 c-44 -18 -56 -77 -23 -110 19 -19 33 -20 263 -20 230 0
245 1 262 20 24 26 22 67 -4 93 -21 21 -31 22 -249 24 -125 1 -237 -2 -249 -7z"/>
<path d="M3465 3301 c-51 -22 -50 -11 -55 -535 l-5 -491 -162 -3 -163 -2 0
236 0 236 -29 29 c-29 29 -31 29 -146 29 -130 0 -156 -9 -174 -62 -7 -18 -11
-119 -11 -249 l0 -219 -160 0 -159 0 -3 396 -3 396 -33 29 c-31 28 -36 29
-137 29 -59 0 -115 -5 -130 -12 -54 -24 -55 -34 -55 -453 l0 -385 -162 2 -163
3 -3 146 c-2 143 -3 147 -29 173 -25 25 -30 26 -148 26 -118 0 -123 -1 -148
-26 -26 -26 -27 -30 -29 -173 l-3 -146 -90 -2 c-118 -4 -130 -7 -145 -43 -16
-39 -1 -76 36 -90 16 -6 528 -10 1404 -10 876 0 1388 4 1404 10 37 14 52 51
36 90 -15 36 -27 39 -145 43 l-90 2 -5 492 -5 492 -23 23 c-20 21 -33 23 -135
25 -61 2 -121 -1 -132 -6z"/>
</g>
</svg>
