<?xml version="1.0" standalone="no"?>
<!DOCTYPE svg PUBLIC "-//W3C//DTD SVG 20010904//EN"
 "http://www.w3.org/TR/2001/REC-SVG-20010904/DTD/svg10.dtd">
<svg version="1.0" xmlns="http://www.w3.org/2000/svg"
 width="512.000000pt" height="512.000000pt" viewBox="0 0 512.000000 512.000000"
 preserveAspectRatio="xMidYMid meet">

<g transform="translate(0.000000,512.000000) scale(0.100000,-0.100000)"
fill="#000000" stroke="none">
<path d="M1676 5094 c-137 -33 -261 -135 -317 -261 -17 -37 -34 -75 -38 -83
-7 -13 -79 -16 -522 -20 l-514 -5 -55 -27 c-72 -35 -130 -85 -168 -146 -66
-102 -63 42 -60 -2208 l3 -2039 32 -65 c35 -71 96 -139 158 -175 97 -57 35
-55 1587 -55 1017 0 1442 3 1480 11 141 30 247 126 290 261 17 55 18 102 18
591 l0 532 109 -109 c89 -89 118 -126 166 -211 90 -162 166 -253 417 -501 285
-283 296 -289 463 -289 101 0 115 2 170 29 80 40 149 111 188 194 29 61 32 76
32 162 0 83 -4 103 -30 160 -25 57 -57 94 -264 303 -257 260 -330 321 -496
414 -93 53 -127 79 -223 176 l-114 114 30 84 c16 46 35 119 42 162 17 103 8
279 -20 377 -61 215 -208 411 -397 526 l-68 41 -5 704 -5 704 -27 57 c-37 80
-107 152 -187 191 l-66 32 -514 5 -514 5 -27 67 c-50 122 -127 204 -243 258
-106 50 -202 61 -311 34z m193 -200 c78 -23 150 -97 185 -190 28 -74 64 -117
126 -150 30 -16 63 -20 213 -22 l177 -4 0 -124 0 -124 -785 0 -785 0 0 124 0
124 178 4 c150 2 183 6 216 22 60 30 103 81 126 151 32 97 103 166 200 196 41
12 93 10 149 -7z m-1069 -489 l0 -125 -151 0 -151 0 -29 -29 -29 -29 0 -805
c0 -795 0 -805 20 -830 43 -55 130 -42 162 23 17 32 18 89 18 753 l0 717 185
0 185 0 0 -80 c0 -143 68 -258 188 -317 l57 -28 525 0 c494 0 528 1 575 19 68
26 142 98 176 171 25 52 29 72 29 148 l0 87 185 0 185 0 -2 -490 -3 -491 -81
-33 c-281 -115 -489 -366 -550 -663 -12 -58 -15 -112 -12 -213 5 -116 10 -148
37 -230 57 -175 156 -319 297 -430 72 -57 226 -141 287 -156 l27 -6 0 -364 0
-364 -1145 0 -1145 0 0 563 c0 348 -4 576 -10 598 -20 72 -112 94 -163 41
l-27 -28 0 -658 0 -658 29 -29 29 -29 1284 0 c1201 0 1284 2 1304 18 43 34 44
44 44 465 l0 404 83 7 c45 4 99 9 120 13 l38 6 -3 -510 -3 -509 -25 -37 c-15
-22 -46 -48 -74 -62 l-50 -25 -1430 0 c-1367 0 -1433 1 -1471 19 -49 22 -91
69 -105 119 -8 26 -10 641 -8 2048 l3 2010 27 41 c15 23 44 49 70 62 40 20 58
21 271 21 l227 0 0 -125z m2463 109 c45 -23 66 -44 88 -86 18 -35 19 -69 19
-679 l0 -641 -27 6 c-16 3 -70 9 -120 12 l-93 7 -2 544 -3 545 -33 29 -32 29
-145 0 -145 0 0 125 0 125 230 0 c193 0 236 -3 263 -16z m-903 -508 c0 -81
-16 -113 -70 -141 -42 -22 -953 -22 -1005 -1 -52 22 -75 68 -75 149 l0 67 575
0 575 0 0 -74z m995 -1101 c197 -53 364 -195 452 -383 98 -211 80 -476 -47
-666 -175 -261 -485 -379 -775 -294 -305 88 -505 353 -505 668 0 214 85 394
255 538 67 58 213 129 300 147 85 18 235 13 320 -10z m605 -1310 l74 -75 -74
-75 -75 -75 -76 76 -77 77 71 72 c40 40 74 73 77 74 3 1 39 -33 80 -74z m317
-241 c113 -67 184 -128 414 -361 215 -217 229 -235 229 -319 0 -50 -44 -126
-92 -157 -61 -39 -146 -39 -209 2 -75 48 -467 455 -531 551 -96 144 -97 126
12 235 52 52 96 95 97 95 1 0 37 -21 80 -46z"/>
<path d="M1719 4721 c-61 -61 -21 -161 64 -161 52 0 76 15 93 57 12 27 13 42
4 69 -23 70 -108 88 -161 35z"/>
<path d="M944 3419 c-17 -5 -39 -18 -50 -30 -18 -20 -19 -39 -19 -295 l0 -274
28 -27 27 -28 247 -3 c174 -2 255 0 275 9 57 23 58 29 58 325 l0 271 -25 25
c-14 14 -39 28 -56 32 -48 9 -450 5 -485 -5z m366 -324 l0 -135 -120 0 -120 0
0 128 c0 71 3 132 7 135 3 4 57 7 120 7 l113 0 0 -135z"/>
<path d="M1747 3165 c-34 -34 -40 -67 -23 -110 26 -61 47 -65 371 -65 325 0
345 4 371 65 12 29 13 44 4 70 -21 64 -24 65 -378 65 l-319 0 -26 -25z"/>
<path d="M935 2501 c-11 -5 -29 -19 -40 -31 -19 -21 -20 -38 -23 -279 -2 -155
1 -268 7 -284 22 -56 45 -62 281 -65 253 -4 289 0 324 35 l26 26 0 269 c0 166
-4 277 -10 289 -24 44 -55 49 -307 48 -131 0 -247 -4 -258 -8z m375 -326 l0
-136 -117 3 -118 3 -3 133 -3 132 121 0 120 0 0 -135z"/>
<path d="M466 2269 c-49 -57 -22 -148 47 -161 98 -19 161 96 91 166 -40 39
-103 37 -138 -5z"/>
<path d="M1772 2265 c-44 -19 -67 -73 -52 -120 19 -57 43 -65 190 -65 l132 0
29 29 c52 53 33 135 -38 162 -39 14 -223 10 -261 -6z"/>
<path d="M904 1556 l-34 -34 0 -256 c0 -272 4 -302 49 -326 12 -6 119 -10 276
-10 l257 0 29 29 29 29 0 271 0 270 -24 28 -24 28 -262 3 -261 3 -35 -35z
m406 -296 l0 -130 -120 0 -120 0 0 130 0 130 120 0 120 0 0 -130z"/>
<path d="M1773 1350 c-31 -13 -57 -57 -57 -98 0 -26 8 -41 32 -63 l32 -29 370
0 370 0 31 28 c23 21 31 37 32 64 1 42 -24 85 -59 98 -32 12 -721 12 -751 0z"/>
<path d="M3480 2529 c-14 -5 -116 -101 -227 -211 l-202 -202 -95 92 c-90 87
-98 92 -138 92 -60 0 -98 -37 -98 -98 0 -43 3 -47 128 -174 70 -71 140 -137
156 -145 60 -31 74 -21 349 255 227 228 257 262 257 289 0 47 -19 80 -55 98
-38 17 -41 17 -75 4z"/>
</g>
</svg>
