<?xml version="1.0" standalone="no"?>
<!DOCTYPE svg PUBLIC "-//W3C//DTD SVG 20010904//EN"
 "http://www.w3.org/TR/2001/REC-SVG-20010904/DTD/svg10.dtd">
<svg version="1.0" xmlns="http://www.w3.org/2000/svg"
 width="512.000000pt" height="512.000000pt" viewBox="0 0 512.000000 512.000000"
 preserveAspectRatio="xMidYMid meet">

<g transform="translate(0.000000,512.000000) scale(0.100000,-0.100000)"
fill="#000000" stroke="none">
<path d="M2205 4392 c-99 -113 -244 -278 -321 -366 -78 -89 -325 -370 -549
-626 -224 -256 -434 -495 -466 -531 -33 -37 -69 -80 -81 -95 -12 -16 -54 -65
-93 -109 -39 -44 -84 -96 -100 -116 -17 -20 -95 -110 -175 -200 -157 -179
-355 -404 -378 -431 -13 -15 -13 -18 -1 -18 8 0 98 95 199 212 401 459 477
545 536 608 34 36 137 151 229 255 578 658 1291 1470 1298 1479 9 13 36 -15
314 -330 116 -132 342 -387 502 -569 160 -181 291 -332 291 -335 0 -3 -89 -6
-198 -8 -108 -1 -233 -6 -277 -12 -44 -5 -105 -12 -135 -15 -114 -12 -287 -68
-424 -136 -43 -21 -83 -39 -89 -39 -6 0 -65 25 -131 57 -67 31 -161 75 -211
98 -234 110 -245 114 -245 80 0 -7 54 -121 119 -253 l120 -240 -43 -75 c-76
-134 -195 -268 -301 -340 -103 -70 -258 -122 -426 -142 l-56 -7 40 -136 c21
-76 46 -143 55 -149 23 -19 40 -16 57 10 13 21 13 30 -6 97 -22 82 -20 100 13
100 42 0 202 52 293 95 136 65 261 184 365 348 30 47 57 86 60 87 3 0 20 -30
39 -66 37 -72 55 -94 76 -94 21 0 45 29 45 56 0 13 -57 137 -126 275 -69 138
-124 253 -122 255 2 2 95 -42 206 -97 l202 -101 97 50 c54 28 123 60 153 71
70 27 223 68 275 75 22 3 74 10 115 15 41 6 188 11 327 11 l252 0 526 -597
526 -597 101 -3 c94 -3 100 -2 87 14 -8 9 -184 210 -393 447 -208 237 -566
645 -795 906 -229 261 -510 580 -625 710 -114 129 -285 324 -380 432 -94 108
-175 197 -181 197 -5 -1 -91 -93 -190 -207z"/>
<path d="M2000 2351 c-16 -31 -12 -69 10 -91 25 -25 31 -25 64 1 30 24 35 69
10 93 -22 23 -71 20 -84 -3z"/>
<path d="M1035 1790 c-130 -19 -253 -123 -306 -257 -19 -48 -23 -78 -23 -168
0 -97 3 -118 27 -174 92 -220 343 -313 552 -204 102 53 163 126 197 236 29 96
22 247 -14 327 -82 178 -244 268 -433 240z m154 -208 c136 -62 148 -334 18
-420 -34 -23 -52 -27 -107 -27 -55 0 -73 4 -107 27 -111 73 -124 287 -23 388
58 58 136 70 219 32z"/>
<path d="M3098 1783 c-113 -29 -200 -104 -257 -223 -35 -73 -36 -78 -36 -195
0 -109 3 -125 27 -178 58 -123 120 -184 233 -227 138 -52 288 -23 394 76 l56
53 -65 65 -64 66 -31 -29 c-52 -49 -91 -64 -161 -59 -52 3 -70 9 -101 34 -60
48 -83 103 -83 199 1 152 71 235 200 235 62 0 90 -11 138 -54 l38 -35 64 64
64 65 -49 50 c-88 89 -235 126 -367 93z"/>
<path d="M10 1371 l0 -411 95 0 94 0 3 108 3 107 60 3 60 3 63 -106 c35 -59
69 -108 76 -111 7 -3 54 -3 104 -2 l92 3 -70 115 c-39 63 -70 121 -70 130 0 8
14 24 30 35 69 46 118 171 105 268 -10 71 -51 152 -94 188 -73 60 -125 71
-348 77 l-203 5 0 -412z m374 215 c48 -20 66 -51 66 -113 0 -44 -5 -58 -29
-85 -27 -30 -32 -32 -120 -36 l-91 -4 0 126 0 126 70 0 c39 0 86 -6 104 -14z"/>
<path d="M1490 1690 l0 -90 115 0 115 0 0 -325 0 -325 100 0 100 0 2 323 3
322 113 3 113 3 -3 87 -3 87 -327 3 -328 2 0 -90z"/>
<path d="M2180 1365 l0 -415 290 0 290 0 0 90 0 90 -187 2 -188 3 -3 72 -3 73
163 2 163 3 0 83 0 83 -160 2 -160 2 -3 73 -3 72 186 0 185 0 0 90 0 90 -285
0 -285 0 0 -415z"/>
<path d="M3565 1768 c-3 -7 -4 -193 -3 -413 l3 -400 98 -3 97 -3 0 221 c0 121
3 220 8 220 4 0 13 -10 21 -22 11 -19 135 -190 279 -386 l24 -33 81 3 82 3 0
410 0 410 -97 3 -98 3 -2 -222 -3 -222 -161 219 -161 219 -82 3 c-59 2 -83 -1
-86 -10z"/>
<path d="M4536 1627 c-32 -83 -104 -268 -159 -410 -55 -142 -98 -259 -96 -260
2 -1 47 -1 100 1 l97 3 16 47 c10 26 24 62 32 80 l14 33 157 -3 157 -3 29 -77
30 -78 99 0 c76 0 99 3 95 13 -3 6 -22 55 -42 107 -20 52 -57 147 -82 210 -25
63 -74 189 -109 280 -36 91 -69 175 -74 188 -9 21 -15 22 -107 22 l-98 0 -59
-153z m213 -219 c23 -64 41 -119 41 -122 0 -3 -43 -6 -95 -6 -52 0 -95 3 -95
8 0 7 43 130 76 221 20 52 18 54 73 -101z"/>
</g>
</svg>
