<?xml version="1.0" standalone="no"?>
<!DOCTYPE svg PUBLIC "-//W3C//DTD SVG 20010904//EN"
 "http://www.w3.org/TR/2001/REC-SVG-20010904/DTD/svg10.dtd">
<svg version="1.0" xmlns="http://www.w3.org/2000/svg"
 width="512.000000pt" height="512.000000pt" viewBox="0 0 512.000000 512.000000"
 preserveAspectRatio="xMidYMid meet">

<g transform="translate(0.000000,512.000000) scale(0.100000,-0.100000)"
fill="#000000" stroke="none">
<path d="M984 5109 c-54 -15 -127 -72 -157 -120 -17 -29 -32 -70 -37 -110 -6
-36 -10 -558 -10 -1196 l0 -1133 -275 0 c-249 0 -279 -2 -327 -20 -68 -25
-132 -90 -158 -158 -19 -51 -20 -81 -20 -1097 0 -1018 0 -1046 20 -1097 25
-68 90 -132 158 -158 50 -19 80 -20 797 -20 717 0 747 1 797 20 68 26 133 90
158 158 18 48 20 78 20 322 l0 270 533 0 532 0 28 -79 c48 -137 119 -243 247
-371 162 -162 316 -247 532 -297 100 -22 347 -23 443 0 425 98 736 409 832
832 22 96 22 344 0 440 -83 362 -341 664 -669 783 l-83 30 -5 1078 c-4 803 -8
1084 -17 1099 -6 11 -196 203 -420 428 l-409 407 -1240 -1 c-710 0 -1252 -5
-1270 -10z m2397 -431 l4 -293 28 -57 c30 -61 64 -95 131 -131 39 -21 54 -22
339 -25 l297 -3 0 -1013 0 -1012 -95 4 c-220 10 -449 -55 -640 -183 -106 -70
-255 -226 -319 -333 -106 -177 -151 -346 -151 -565 l0 -147 -512 0 -513 0 0
700 c0 674 -1 701 -20 752 -25 68 -90 132 -158 158 -49 19 -78 20 -442 20
l-390 0 0 1165 c0 1283 -4 1206 62 1238 30 15 143 17 1204 17 l1172 0 3 -292z
m474 -356 c-184 -2 -221 0 -251 14 -60 29 -64 47 -64 296 l0 223 265 -265 265
-265 -215 -3z m-2118 -1942 c67 -40 63 28 63 -1105 0 -1133 4 -1065 -63 -1105
-31 -19 -56 -20 -762 -20 -706 0 -731 1 -762 20 -67 40 -63 -28 -63 1105 0
1133 -4 1065 63 1105 31 19 56 20 762 20 706 0 731 -1 762 -20z m2538 -410
c273 -73 488 -253 611 -514 60 -127 77 -211 77 -381 0 -176 -16 -251 -86 -399
-69 -143 -183 -277 -312 -366 -68 -46 -203 -107 -292 -132 -113 -31 -344 -31
-458 1 -267 72 -490 257 -605 503 -66 142 -85 230 -84 398 1 167 18 247 83
385 107 228 284 389 529 482 152 57 374 67 537 23z"/>
<path d="M1217 3906 c-10 -8 -22 -29 -27 -47 -13 -45 -13 -983 0 -1028 18 -63
-6 -60 570 -60 576 0 552 -3 570 60 13 45 13 983 0 1028 -18 63 6 60 -570 60
-426 0 -528 -2 -543 -13z m963 -561 l0 -425 -420 0 -420 0 0 425 0 425 420 0
420 0 0 -425z"/>
<path d="M2625 3895 c-25 -24 -25 -27 -25 -200 0 -173 0 -176 25 -200 l24 -25
618 0 c677 1 645 -2 663 61 13 44 13 284 0 328 -18 63 14 60 -663 61 l-618 0
-24 -25z m1155 -200 l0 -75 -515 0 -515 0 0 75 0 75 515 0 515 0 0 -75z"/>
<path d="M2625 3195 c-25 -24 -25 -27 -25 -200 0 -173 0 -176 25 -200 l24 -25
618 0 c677 1 645 -2 663 61 13 44 13 284 0 328 -18 63 14 60 -663 61 l-618 0
-24 -25z m1155 -200 l0 -75 -515 0 -515 0 0 75 0 75 515 0 515 0 0 -75z"/>
<path d="M2225 2495 c-14 -13 -25 -36 -25 -50 0 -14 11 -37 25 -50 l24 -25
819 0 c810 0 818 0 840 20 30 28 30 82 0 110 -22 20 -30 20 -840 20 l-819 0
-24 -25z"/>
<path d="M2225 2095 c-14 -13 -25 -36 -25 -50 0 -14 11 -37 25 -50 l24 -25
469 0 c457 0 469 0 490 20 14 14 22 33 22 55 0 22 -8 41 -22 55 -21 20 -33 20
-490 20 l-469 0 -24 -25z"/>
<path d="M425 2125 l-25 -24 0 -226 0 -226 25 -24 24 -25 526 0 526 0 24 25
25 24 0 226 0 226 -25 24 -24 25 -526 0 -526 0 -24 -25z m975 -250 l0 -125
-425 0 -425 0 0 125 0 125 425 0 425 0 0 -125z"/>
<path d="M425 1325 l-25 -24 0 -426 0 -426 25 -24 24 -25 526 0 526 0 24 25
25 24 0 426 0 426 -25 24 -24 25 -526 0 -526 0 -24 -25z m475 -250 l0 -125
-175 0 -175 0 0 125 0 125 175 0 175 0 0 -125z m500 0 l0 -125 -175 0 -175 0
0 125 0 125 175 0 175 0 0 -125z m-500 -400 l0 -125 -175 0 -175 0 0 125 0
125 175 0 175 0 0 -125z m500 0 l0 -125 -175 0 -175 0 0 125 0 125 175 0 175
0 0 -125z"/>
<path d="M3906 1729 c-24 -19 -26 -26 -26 -100 l0 -79 -53 -24 c-93 -41 -167
-150 -167 -246 0 -75 29 -142 84 -196 74 -72 115 -84 293 -84 161 0 190 -8
223 -63 25 -41 25 -83 0 -124 -35 -58 -56 -63 -283 -63 -185 0 -207 -2 -228
-19 -17 -13 -23 -29 -23 -56 0 -53 30 -75 100 -75 l54 0 0 -79 c0 -74 2 -81
26 -100 33 -26 65 -27 95 -2 21 17 24 30 27 100 3 61 8 81 18 81 11 0 14 -16
14 -65 0 -119 54 -169 124 -114 24 19 26 26 26 100 l0 79 53 24 c32 14 69 41
95 71 99 113 94 264 -11 370 -74 73 -115 85 -296 85 -163 0 -195 10 -226 69
-30 59 -10 126 48 161 29 18 51 20 238 20 187 0 209 2 230 19 17 13 23 29 23
56 0 53 -30 75 -100 75 l-54 0 0 79 c0 74 -2 81 -26 100 -33 26 -65 27 -95 2
-21 -17 -24 -30 -27 -100 -3 -61 -8 -81 -18 -81 -11 0 -14 16 -14 65 0 119
-54 169 -124 114z"/>
</g>
</svg>
